<svg xmlns="http://www.w3.org/2000/svg" viewBox="0 0 64 64">
  <rect width="64" height="64" rx="16" fill="#006a4e"/>
  <g transform="translate(12.4 5) scale(.0978)"><path d="M388.6 432.3L390.1 440.7L388.6 454.6L389.8 478.8L394.0 493.7L393.4 496.1L389.8 499.1L388.0 499.2L384.0 488.9L381.9 488.4L379.2 489.0L372.8 487.5L371.0 482.0L369.8 480.5L367.1 479.6L364.1 483.6L359.8 483.7L358.0 489.5L355.0 494.4L355.6 501.7L354.7 505.9L355.9 508.7L358.0 510.7L358.9 513.5L362.2 516.4L361.9 527.4L362.9 530.8L365.9 535.5L368.3 544.3L367.4 546.0L365.3 543.9L357.7 528.4L355.9 521.4L351.4 517.7L348.3 512.3L344.4 507.8L343.8 506.4L344.4 496.3L339.3 485.8L337.4 484.4L336.2 481.4L335.9 479.9L337.1 480.5L338.7 477.1L340.2 476.2L341.7 476.8L340.5 475.7L339.3 470.4L342.0 467.0L341.7 465.5L343.2 463.3L343.2 460.7L342.0 459.9L342.3 456.6L341.1 461.0L340.2 462.4L338.7 462.4L338.1 461.3L338.7 457.3L338.1 457.3L337.8 458.8L336.2 457.6L336.2 454.3L339.3 452.3L338.7 451.7L337.4 452.6L336.8 451.8L339.3 449.0L332.3 450.3L331.7 449.5L331.7 447.3L332.6 445.5L334.1 444.6L333.8 442.9L335.9 441.6L335.9 440.8L334.1 441.3L332.9 442.9L331.7 435.3L330.2 433.1L330.2 429.5L328.1 420.2L327.8 417.1L329.0 417.6L328.4 416.4L327.8 416.7L327.2 419.5L326.6 419.5L324.4 413.7L324.7 410.0L326.3 408.5L326.6 406.1L324.4 404.4L324.1 402.1L329.6 399.5L332.3 391.3L330.8 391.3L329.9 396.8L322.6 402.6L322.9 404.0L325.7 405.7L325.4 407.4L324.1 408.6L322.3 408.5L320.8 406.3L318.7 392.5L313.0 381.2L302.1 366.0L299.3 364.9L296.0 360.4L294.8 360.3L294.5 357.2L297.2 349.4L297.2 347.3L296.6 347.3L294.8 353.8L291.2 356.9L290.9 361.1L288.5 359.5L285.1 359.2L285.1 359.8L286.9 360.4L287.2 361.2L286.3 362.0L280.6 362.5L283.9 364.2L283.9 365.5L282.7 366.3L280.0 366.8L276.7 366.2L276.7 364.2L271.5 363.5L272.7 366.2L270.3 366.8L270.3 367.4L277.3 369.6L278.2 371.4L276.4 377.5L273.0 380.4L266.7 381.8L263.7 380.3L261.8 377.8L260.9 373.9L257.6 367.6L256.4 368.0L258.8 371.7L259.4 376.2L254.9 377.5L252.5 377.5L251.3 376.5L246.4 370.2L245.8 367.6L242.2 367.4L241.0 363.5L238.9 362.3L236.7 358.3L232.5 344.0L225.9 335.0L224.9 332.6L225.9 321.2L228.0 315.7L227.7 314.0L228.3 314.0L226.8 311.0L226.8 309.8L227.7 309.0L227.1 308.2L224.9 309.0L223.4 307.1L222.5 304.4L222.5 297.2L223.1 295.1L225.3 293.8L230.1 293.8L232.2 292.7L232.2 289.3L231.3 287.6L229.2 287.6L229.5 288.9L231.0 290.0L230.4 292.0L228.0 291.0L223.1 293.5L221.6 289.5L221.9 286.9L223.1 284.7L225.3 283.8L224.6 283.1L224.0 283.8L223.4 282.8L218.9 284.4L219.5 285.6L218.0 286.9L215.3 286.9L212.2 285.0L212.9 286.4L215.3 287.9L219.8 288.2L220.4 289.0L220.7 297.2L218.6 303.1L199.2 298.8L193.2 295.7L193.8 297.7L206.2 305.4L208.0 308.5L214.4 310.9L219.8 311.5L223.1 315.8L223.7 320.6L221.9 318.3L222.5 327.8L220.1 331.0L218.6 331.3L218.3 330.5L219.5 329.0L218.9 328.4L215.9 331.2L210.1 331.9L209.8 333.3L211.3 338.9L215.0 344.3L215.0 346.0L217.1 347.4L217.1 348.8L215.9 349.4L212.2 349.1L210.4 351.1L208.6 356.7L206.5 357.3L207.7 358.6L207.4 359.8L206.2 360.3L205.3 359.2L203.5 360.4L208.6 362.9L209.5 361.2L212.2 362.8L215.0 371.0L215.0 374.8L213.5 376.2L211.3 376.5L210.1 378.4L209.2 384.9L211.0 382.4L210.7 379.6L211.6 377.5L214.7 376.4L219.2 378.7L223.1 387.5L221.3 386.8L221.3 388.9L223.7 393.9L223.7 401.3L221.0 408.5L218.9 411.6L214.1 414.0L213.2 417.6L209.8 422.9L207.7 423.0L204.7 420.9L207.4 412.0L206.5 409.4L206.5 404.1L205.3 403.8L204.7 409.7L206.8 413.9L205.0 417.1L204.1 417.1L202.9 422.9L200.2 426.4L198.0 431.7L195.9 442.1L189.3 448.1L185.9 448.3L179.9 445.8L179.6 444.2L180.2 443.2L181.4 443.5L180.8 442.1L182.3 440.4L182.6 436.5L180.5 441.5L177.8 443.6L176.9 444.1L174.1 442.9L175.1 435.4L176.6 432.6L178.7 431.4L181.1 425.2L185.3 420.4L186.5 419.5L188.4 420.2L190.2 419.0L191.7 416.8L192.0 412.0L189.3 418.1L184.4 420.1L179.6 425.5L176.6 431.2L174.4 431.4L171.7 430.1L172.9 426.4L175.1 424.7L175.7 418.2L178.7 415.1L176.6 416.1L175.4 417.6L174.1 422.1L170.5 426.1L170.5 431.5L169.3 432.6L167.8 432.0L166.6 430.5L165.1 425.7L163.9 411.7L162.0 408.2L161.7 405.1L163.9 399.6L172.9 385.2L167.8 389.9L165.4 394.4L161.4 391.9L162.0 398.9L158.4 405.7L160.5 410.9L161.4 421.8L159.3 423.8L155.1 423.3L155.1 424.0L158.4 425.7L159.3 427.2L159.0 431.9L162.7 439.4L162.0 440.8L159.6 441.5L155.7 445.3L153.3 446.1L152.4 444.2L149.0 445.9L147.5 445.8L143.6 444.1L143.0 441.3L143.9 439.8L142.4 437.1L140.0 442.2L144.5 448.3L146.9 450.0L146.0 451.8L144.2 453.1L141.2 451.8L138.2 452.3L139.1 456.0L137.6 457.7L135.7 456.5L133.3 452.8L132.4 447.3L132.7 445.3L135.4 440.8L136.0 427.4L139.1 419.9L138.8 417.9L135.7 413.0L135.7 411.6L138.5 408.2L140.6 399.5L136.9 404.7L136.9 408.5L134.2 411.4L134.2 412.6L136.6 416.8L136.6 421.0L135.4 423.6L134.5 430.8L132.7 431.7L132.1 426.1L133.3 422.1L129.4 413.0L129.7 406.9L128.8 403.2L128.2 403.2L127.3 409.2L128.2 420.9L128.8 420.9L129.7 417.8L131.2 421.8L130.9 426.4L129.1 427.4L131.8 433.7L131.2 438.5L127.3 443.2L127.3 450.3L125.2 453.5L122.1 456.2L121.2 456.3L119.1 453.8L118.8 445.9L120.6 439.3L118.2 432.8L117.6 432.8L117.9 440.1L115.2 443.6L114.0 447.0L113.1 447.8L111.8 446.6L112.8 452.5L110.9 457.9L111.2 459.0L113.1 459.7L109.1 462.7L107.3 462.8L105.8 461.9L105.2 460.2L106.7 456.9L104.0 449.4L104.0 447.5L103.4 447.2L101.0 449.8L97.0 447.2L94.6 438.0L95.8 430.1L92.8 424.3L93.1 418.2L94.6 416.4L94.6 414.2L93.4 410.8L88.9 404.0L90.1 403.2L88.6 400.7L87.3 394.7L87.3 393.0L88.3 391.7L88.0 388.8L85.5 381.8L81.9 380.0L84.0 378.7L84.3 376.5L80.4 362.3L82.8 358.4L83.4 352.4L79.2 349.6L74.6 340.8L75.6 331.6L76.8 329.3L84.3 321.7L84.6 319.9L73.1 316.6L69.2 318.1L63.8 316.4L62.6 315.4L61.6 311.6L64.4 306.5L68.9 293.7L67.7 292.7L64.7 295.5L63.2 293.1L58.6 289.5L55.3 284.5L52.0 284.2L51.4 283.3L51.7 280.8L49.5 279.9L51.4 270.6L50.5 267.3L52.3 264.5L52.6 260.1L54.1 259.0L58.9 258.7L64.1 253.7L64.4 252.0L63.2 247.2L65.0 243.2L62.9 242.7L62.9 241.6L61.0 240.2L61.0 232.6L62.2 230.6L65.6 229.4L66.8 227.1L66.2 220.4L64.1 217.8L59.5 215.8L57.4 219.8L44.1 217.8L37.8 212.8L15.7 201.3L13.3 200.7L11.1 197.0L11.1 192.2L9.0 188.6L6.0 187.6L6.3 184.8L8.1 181.5L8.4 177.5L10.5 176.9L11.4 173.8L13.3 173.3L16.0 169.3L13.9 162.6L17.8 160.4L21.1 160.0L23.5 162.5L24.4 166.0L30.5 167.1L31.1 166.5L35.6 160.0L36.8 155.5L39.0 153.0L39.9 150.4L41.1 137.7L44.1 137.1L51.1 139.4L53.8 137.5L57.4 137.4L65.0 139.7L70.1 140.3L71.9 137.1L72.8 136.9L81.6 139.7L80.4 137.7L81.9 137.4L82.2 134.0L86.7 129.8L86.1 127.3L79.8 127.1L78.0 125.3L75.0 124.5L71.3 118.8L72.5 112.9L68.9 109.0L66.5 107.9L66.5 109.6L63.5 109.9L60.1 112.6L54.1 109.6L48.6 109.2L44.1 103.4L39.6 100.7L39.3 95.1L37.1 92.6L31.1 88.4L26.0 82.7L23.2 81.3L14.8 83.9L11.4 78.8L10.2 71.7L11.1 71.1L13.0 65.2L14.8 62.1L16.9 60.4L17.5 58.7L16.0 56.3L16.0 55.0L17.8 50.5L22.6 46.7L31.4 43.5L32.3 42.1L32.3 37.4L40.5 30.0L41.7 30.8L45.9 30.9L44.1 23.7L42.9 21.6L33.8 18.9L32.9 19.5L32.3 22.1L31.1 21.8L30.5 20.6L30.8 17.9L33.8 10.2L36.5 6.0L37.5 8.3L37.5 12.0L38.7 13.3L42.9 14.8L48.3 19.6L53.8 21.0L55.6 23.8L59.2 25.2L58.6 26.8L60.1 27.8L60.1 29.5L63.8 32.0L64.1 33.1L63.2 34.8L58.3 37.9L59.8 39.0L66.8 36.5L69.8 37.6L71.9 41.9L73.4 42.6L74.6 41.9L75.9 39.0L77.7 37.8L79.8 38.2L83.7 41.9L86.1 42.7L89.8 41.8L91.6 40.5L91.0 38.8L88.6 37.9L88.9 36.1L86.4 36.5L85.2 33.1L80.7 31.3L78.9 29.4L78.9 27.8L80.7 24.6L83.1 23.0L87.0 25.4L88.9 27.5L91.9 28.3L92.8 31.4L96.7 33.3L96.1 34.8L94.0 34.5L94.0 37.0L96.7 42.6L98.2 49.8L99.1 51.1L106.1 54.2L107.9 57.9L116.4 63.5L117.6 63.6L120.0 61.9L120.9 61.9L122.7 63.9L129.4 63.5L131.5 66.7L133.6 67.0L135.1 61.3L138.8 58.2L139.4 56.7L138.8 55.6L135.7 55.3L135.7 54.2L138.8 52.2L136.0 51.4L135.4 50.1L137.2 47.8L139.7 48.3L139.1 46.7L139.7 43.2L143.0 42.9L143.3 48.6L147.5 49.1L148.4 50.0L151.2 55.6L151.5 60.4L154.5 64.4L156.6 63.6L157.8 65.2L157.5 66.4L154.5 68.0L158.1 69.5L157.8 71.7L154.2 78.0L153.9 80.4L155.4 88.6L158.1 96.8L157.2 110.1L154.8 120.6L155.1 123.9L156.9 128.8L164.5 127.8L182.9 135.7L196.2 138.4L202.9 141.2L205.6 141.4L214.4 139.5L221.0 140.2L224.3 139.2L231.6 140.9L234.0 139.5L235.5 139.7L238.9 141.7L241.3 142.0L267.6 137.5L272.1 137.7L275.8 136.4L280.0 138.6L292.4 142.3L296.6 142.6L303.6 140.3L306.3 143.3L309.6 143.7L311.7 143.4L313.0 141.1L315.7 141.7L317.5 139.7L331.7 138.8L336.5 139.4L342.9 138.3L348.0 139.8L350.5 142.5L354.7 142.9L359.8 147.3L365.6 148.2L367.7 150.7L372.2 152.9L372.5 155.5L374.6 156.1L378.6 159.2L378.0 160.0L380.1 160.8L381.6 164.6L380.1 167.6L372.2 170.1L364.4 164.9L361.3 163.9L358.9 164.9L358.3 166.5L360.1 172.5L359.8 175.5L355.6 187.4L354.4 194.1L352.9 196.9L349.5 199.6L348.9 201.3L349.2 209.6L347.4 211.7L345.3 212.7L335.9 212.3L337.8 217.8L333.5 215.1L331.7 215.8L332.3 222.9L329.9 232.3L328.7 232.9L327.2 232.5L324.4 230.0L323.8 226.4L317.8 225.2L316.9 226.4L317.8 231.7L315.1 233.7L312.0 232.5L309.9 227.4L309.0 227.1L307.8 233.9L306.3 237.1L305.1 237.9L299.6 239.0L290.0 237.3L286.6 237.6L285.4 239.9L284.5 247.2L283.6 247.8L280.6 247.2L279.1 247.8L274.2 255.1L273.9 257.7L275.2 262.7L273.3 267.6L272.4 269.2L267.9 270.6L267.3 272.4L267.6 274.5L270.3 275.7L270.9 276.9L270.0 278.5L267.9 278.5L267.9 282.4L272.4 293.1L275.5 296.1L277.9 304.2L280.3 305.9L278.5 309.0L279.4 310.7L281.2 325.4L282.4 329.3L284.5 331.9L287.2 332.7L287.5 329.8L286.0 322.0L286.0 318.0L287.2 314.4L289.4 314.4L292.7 318.8L293.0 318.0L293.6 320.3L295.1 321.6L298.4 334.4L299.6 335.3L299.9 338.9L301.2 340.1L304.5 341.4L305.4 343.6L307.2 342.2L307.8 340.5L310.5 340.6L315.4 338.9L318.1 336.3L319.6 334.1L319.6 332.9L321.4 332.6L322.6 331.2L322.9 330.2L319.0 317.2L318.7 313.5L320.2 309.0L324.7 301.7L332.0 297.5L335.0 293.1L335.3 289.5L332.9 278.8L333.5 272.1L334.7 272.1L341.7 279.7L343.8 279.3L349.2 272.6L352.9 271.4L356.5 279.1L357.7 277.9L358.6 273.5L360.1 272.8L361.9 273.7L361.0 279.6L361.3 282.7L364.7 293.1L365.0 297.5L367.1 300.6L368.0 304.7L369.5 306.1L369.2 309.6L370.1 312.9L368.0 317.7L367.7 322.8L369.8 335.8L370.4 345.3L371.9 347.6L374.6 348.8L375.9 350.4L377.4 360.3L381.9 366.5L382.2 378.9L383.7 383.2L388.6 414.8L388.6 417.1L385.2 418.4L388.6 432.3ZM334.7 452.3L335.0 456.3L338.1 462.5L338.7 466.1L337.8 474.0L336.8 475.5L331.4 475.5L331.7 477.4L329.9 477.9L329.0 477.4L328.1 474.9L329.6 470.7L329.6 468.6L327.5 458.8L327.8 455.4L329.3 452.8L331.4 453.8L332.0 454.9L330.8 459.1L332.6 455.2L331.7 450.9L334.7 450.3L334.7 452.3ZM97.9 450.3L99.7 451.7L100.4 454.2L99.1 455.7L96.7 454.5L92.5 449.2L93.4 444.9L91.9 437.9L93.7 438.5L95.8 449.2L97.9 450.3ZM330.8 442.5L326.9 454.5L326.0 455.4L325.4 453.8L326.6 446.3L326.3 439.9L329.0 436.5L330.8 442.5ZM221.9 431.5L223.1 435.9L221.6 436.2L221.0 438.2L219.5 437.7L218.9 439.6L215.9 443.0L214.4 442.9L214.4 442.2L216.8 441.6L215.0 439.6L216.2 435.4L221.9 431.5ZM200.2 435.9L203.2 430.8L205.3 430.1L200.8 443.0L199.2 444.6L198.9 440.1L200.2 435.9ZM208.6 426.4L211.9 429.8L212.9 432.3L212.2 435.3L207.1 439.4L205.9 438.8L205.3 435.9L206.8 432.5L207.1 426.7L208.0 425.8L208.6 426.4ZM217.7 424.6L217.4 424.0L212.9 427.0L213.5 422.9L219.2 417.6L223.7 415.1L221.9 420.9L221.3 418.2L219.2 428.1L215.9 430.8L214.4 429.2L214.4 428.0L217.7 424.6ZM268.5 397.5L269.1 399.8L270.6 400.9L271.8 409.4L267.9 416.8L266.4 418.2L264.0 419.3L261.5 421.9L257.9 421.5L256.4 419.5L260.6 414.2L261.8 408.2L262.4 394.5L264.0 394.4L268.5 397.5ZM269.4 384.0L273.0 383.1L273.9 384.8L273.0 386.9L269.4 388.9L267.3 388.9L265.8 387.9L266.4 385.4L269.4 384.0ZM295.4 376.4L303.0 386.3L303.6 390.3L302.7 393.4L298.7 393.9L296.0 392.3L293.6 388.6L291.8 382.1L293.6 377.3L295.4 376.4ZM238.6 384.8L244.0 390.3L242.2 399.0L242.5 413.9L237.0 423.3L235.8 424.6L235.2 423.3L232.5 425.8L230.1 429.5L226.5 430.8L225.9 428.8L229.5 420.9L224.6 427.8L223.4 428.0L222.8 426.3L223.1 423.6L225.3 419.0L224.3 417.0L225.3 413.6L229.2 404.3L229.5 389.4L226.5 380.0L220.4 375.3L218.9 375.0L218.9 368.3L220.7 360.7L222.2 359.0L226.8 358.0L229.5 366.5L234.9 375.5L236.4 382.7L238.6 384.8ZM226.2 352.4L229.2 356.1L221.6 355.6L216.8 359.7L217.1 363.4L215.9 364.9L213.5 361.2L210.4 359.8L211.3 358.0L211.3 352.1L212.9 350.4L215.9 351.0L217.4 350.7L217.7 349.4L221.9 349.3L226.2 352.4ZM228.3 342.8L225.3 342.8L228.3 346.0L225.6 345.7L222.5 342.3L216.2 342.8L214.7 340.8L216.5 337.8L219.2 335.5L221.3 335.3L228.3 342.8ZM216.2 309.0L214.7 309.6L211.3 308.1L208.0 304.0L208.3 303.1L213.5 304.2L220.7 308.9L221.3 310.9L218.3 308.5L216.5 307.9L216.2 309.0Z" fill="#fff"/></g>
  <circle cx="31" cy="30" r="9" fill="#e03a3e"/>
</svg>